<svg width="38" height="38" viewBox="0 0 38 38" fill="none" xmlns="http://www.w3.org/2000/svg">
<path d="M27.3333 2.33301H10.6667C6.06429 2.33301 2.33333 6.06397 2.33333 10.6663V27.333C2.33333 31.9354 6.06429 35.6663 10.6667 35.6663H27.3333C31.9357 35.6663 35.6667 31.9354 35.6667 27.333V10.6663C35.6667 6.06397 31.9357 2.33301 27.3333 2.33301Z" fill="url(#paint0_linear_3107_208)"/>
<path d="M25.6667 17.9497C25.8723 19.3368 25.6354 20.7534 24.9896 21.998C24.3438 23.2427 23.3219 24.252 22.0694 24.8825C20.8168 25.5129 19.3974 25.7323 18.013 25.5096C16.6285 25.2868 15.3496 24.6331 14.3581 23.6416C13.3665 22.6501 12.7129 21.3711 12.4901 19.9867C12.2673 18.6023 12.4868 17.1828 13.1172 15.9303C13.7476 14.6778 14.757 13.6559 16.0016 13.0101C17.2463 12.3642 18.6629 12.1273 20.05 12.333C21.4649 12.5428 22.7747 13.2021 23.7862 14.2135C24.7976 15.2249 25.4569 16.5348 25.6667 17.9497Z" fill="url(#paint1_linear_3107_208)"/>
<path d="M28.1667 9.83301H28.1833M10.6667 2.33301H27.3333C31.9357 2.33301 35.6667 6.06397 35.6667 10.6663V27.333C35.6667 31.9354 31.9357 35.6663 27.3333 35.6663H10.6667C6.06429 35.6663 2.33333 31.9354 2.33333 27.333V10.6663C2.33333 6.06397 6.06429 2.33301 10.6667 2.33301ZM25.6667 17.9497C25.8723 19.3368 25.6354 20.7534 24.9896 21.998C24.3438 23.2427 23.3219 24.252 22.0694 24.8825C20.8168 25.5129 19.3974 25.7323 18.013 25.5096C16.6285 25.2868 15.3496 24.6331 14.3581 23.6416C13.3665 22.6501 12.7129 21.3711 12.4901 19.9867C12.2673 18.6023 12.4868 17.1828 13.1172 15.9303C13.7476 14.6778 14.757 13.6559 16.0016 13.0101C17.2463 12.3642 18.6629 12.1273 20.05 12.333C21.4649 12.5428 22.7747 13.2021 23.7862 14.2135C24.7976 15.2249 25.4569 16.5348 25.6667 17.9497Z" stroke="white" stroke-width="4" stroke-linecap="round" stroke-linejoin="round"/>
<defs>
<linearGradient id="paint0_linear_3107_208" x1="5.00008" y1="34.4997" x2="32.5001" y2="1.99966" gradientUnits="userSpaceOnUse">
<stop stop-color="#FFDD64"/>
<stop offset="1" stop-color="#FF337B"/>
</linearGradient>
<linearGradient id="paint1_linear_3107_208" x1="5.00008" y1="34.4997" x2="32.5001" y2="1.99966" gradientUnits="userSpaceOnUse">
<stop stop-color="#FFDD64"/>
<stop offset="1" stop-color="#FF337B"/>
</linearGradient>
</defs>
</svg>
