<svg width="151" height="69" viewBox="0 0 151 69" fill="none" xmlns="http://www.w3.org/2000/svg">
<path d="M53.2001 33.6722V4.10059H64.9967C67.1642 4.10059 68.9721 4.42306 70.4203 5.06802C71.8685 5.71297 72.9571 6.6082 73.686 7.75372C74.4149 8.88961 74.7793 10.1988 74.7793 11.6812C74.7793 12.8363 74.5491 13.8519 74.0888 14.7279C73.6284 15.5942 72.9954 16.3066 72.1898 16.8649C71.3938 17.4136 70.4826 17.8034 69.4564 18.0345V18.3233C70.5786 18.3714 71.6287 18.689 72.607 19.2762C73.5949 19.8634 74.3957 20.6865 75.0095 21.7454C75.6233 22.7946 75.9302 24.046 75.9302 25.4996C75.9302 27.0686 75.5418 28.4692 74.7649 29.7014C73.9977 30.9239 72.8612 31.8913 71.3554 32.6037C69.8497 33.316 67.9938 33.6722 65.788 33.6722H53.2001ZM59.4293 28.5607H64.5076C66.2435 28.5607 67.5095 28.2286 68.3055 27.5644C69.1016 26.8905 69.4996 25.9953 69.4996 24.8787C69.4996 24.0604 69.303 23.3385 68.9098 22.7128C68.5165 22.0871 67.9555 21.5961 67.2266 21.24C66.5073 20.8838 65.6489 20.7057 64.6515 20.7057H59.4293V28.5607ZM59.4293 16.475H64.0472C64.9008 16.475 65.6585 16.3258 66.3203 16.0274C66.9916 15.7194 67.5191 15.2862 67.9027 14.7279C68.296 14.1696 68.4926 13.5005 68.4926 12.7208C68.4926 11.6523 68.1137 10.7908 67.356 10.1362C66.608 9.48161 65.5434 9.15432 64.1623 9.15432H59.4293V16.475Z" fill="white"/>
<path d="M89.8524 34.1054C87.6178 34.1054 85.6852 33.6289 84.0548 32.6759C82.434 31.7133 81.1824 30.3752 80.3 28.6618C79.4177 26.9387 78.9765 24.9412 78.9765 22.6695C78.9765 20.3784 79.4177 18.3762 80.3 16.6627C81.1824 14.9397 82.434 13.6016 84.0548 12.6486C85.6852 11.686 87.6178 11.2047 89.8524 11.2047C92.0871 11.2047 94.0148 11.686 95.6357 12.6486C97.2661 13.6016 98.5225 14.9397 99.4048 16.6627C100.287 18.3762 100.728 20.3784 100.728 22.6695C100.728 24.9412 100.287 26.9387 99.4048 28.6618C98.5225 30.3752 97.2661 31.7133 95.6357 32.6759C94.0148 33.6289 92.0871 34.1054 89.8524 34.1054ZM89.8812 29.3404C90.8978 29.3404 91.7466 29.0516 92.4276 28.4741C93.1085 27.8869 93.6216 27.0879 93.9669 26.0771C94.3217 25.0664 94.4992 23.9161 94.4992 22.6262C94.4992 21.3362 94.3217 20.1859 93.9669 19.1752C93.6216 18.1644 93.1085 17.3654 92.4276 16.7783C91.7466 16.1911 90.8978 15.8975 89.8812 15.8975C88.855 15.8975 87.9918 16.1911 87.2917 16.7783C86.6012 17.3654 86.0785 18.1644 85.7236 19.1752C85.3783 20.1859 85.2057 21.3362 85.2057 22.6262C85.2057 23.9161 85.3783 25.0664 85.7236 26.0771C86.0785 27.0879 86.6012 27.8869 87.2917 28.4741C87.9918 29.0516 88.855 29.3404 89.8812 29.3404Z" fill="white"/>
<path d="M114.697 34.1054C112.463 34.1054 110.53 33.6289 108.9 32.6759C107.279 31.7133 106.027 30.3752 105.145 28.6618C104.263 26.9387 103.821 24.9412 103.821 22.6695C103.821 20.3784 104.263 18.3762 105.145 16.6627C106.027 14.9397 107.279 13.6016 108.9 12.6486C110.53 11.686 112.463 11.2047 114.697 11.2047C116.932 11.2047 118.86 11.686 120.481 12.6486C122.111 13.6016 123.367 14.9397 124.25 16.6627C125.132 18.3762 125.573 20.3784 125.573 22.6695C125.573 24.9412 125.132 26.9387 124.25 28.6618C123.367 30.3752 122.111 31.7133 120.481 32.6759C118.86 33.6289 116.932 34.1054 114.697 34.1054ZM114.726 29.3404C115.743 29.3404 116.592 29.0516 117.272 28.4741C117.953 27.8869 118.467 27.0879 118.812 26.0771C119.167 25.0664 119.344 23.9161 119.344 22.6262C119.344 21.3362 119.167 20.1859 118.812 19.1752C118.467 18.1644 117.953 17.3654 117.272 16.7783C116.592 16.1911 115.743 15.8975 114.726 15.8975C113.7 15.8975 112.837 16.1911 112.137 16.7783C111.446 17.3654 110.923 18.1644 110.569 19.1752C110.223 20.1859 110.051 21.3362 110.051 22.6262C110.051 23.9161 110.223 25.0664 110.569 26.0771C110.923 27.0879 111.446 27.8869 112.137 28.4741C112.837 29.0516 113.7 29.3404 114.726 29.3404Z" fill="white"/>
<path d="M135.111 27.29L135.126 19.9116H136.018L143.096 11.4935H150.13L140.621 22.6406H139.168L135.111 27.29ZM129.558 33.6722V4.10059H135.687V33.6722H129.558ZM143.369 33.6722L136.866 24.0123L140.952 19.6661L150.548 33.6722H143.369Z" fill="white"/>
<path d="M53.1243 68.6152V49.5554H56.6972V52.5831H56.8951C57.2412 51.5573 57.8511 50.7507 58.7248 50.1634C59.6067 49.5678 60.604 49.27 61.7167 49.27C61.9475 49.27 62.2194 49.2782 62.5326 49.2948C62.8541 49.3113 63.1055 49.332 63.2868 49.3568V52.9057C63.1384 52.8644 62.8747 52.8189 62.4955 52.7692C62.1164 52.7113 61.7373 52.6824 61.3581 52.6824C60.4845 52.6824 59.7056 52.8685 59.0215 53.2408C58.3457 53.6047 57.8099 54.1135 57.4143 54.767C57.0187 55.4123 56.8209 56.1485 56.8209 56.9758V68.6152H53.1243Z" fill="white"/>
<path d="M72.2494 68.9998C70.3785 68.9998 68.7672 68.5986 67.4155 67.7962C66.072 66.9855 65.0335 65.848 64.2999 64.3838C63.5746 62.9113 63.212 61.1865 63.212 59.2094C63.212 57.257 63.5746 55.5364 64.2999 54.0473C65.0335 52.5583 66.0555 51.396 67.366 50.5605C68.6847 49.7249 70.226 49.3072 71.9898 49.3072C73.0613 49.3072 74.0998 49.485 75.1053 49.8408C76.1108 50.1965 77.0134 50.7549 77.8128 51.5159C78.6123 52.277 79.2428 53.2656 79.7044 54.4816C80.1659 55.6894 80.3967 57.1578 80.3967 58.8867V60.2021H65.3014V57.4225H76.7743C76.7743 56.4463 76.5765 55.5819 76.1809 54.8291C75.7853 54.068 75.2289 53.4683 74.5119 53.0298C73.8031 52.5914 72.9706 52.3721 72.0145 52.3721C70.976 52.3721 70.0694 52.6286 69.2946 53.1415C68.5281 53.6461 67.9347 54.3079 67.5144 55.1269C67.1022 55.9376 66.8962 56.8186 66.8962 57.7699V59.9415C66.8962 61.2154 67.1187 62.2991 67.5638 63.1926C68.0171 64.086 68.6476 64.7685 69.4554 65.24C70.2631 65.7033 71.2068 65.9349 72.2865 65.9349C72.9871 65.9349 73.6259 65.8356 74.2028 65.6371C74.7797 65.4303 75.2784 65.1242 75.6987 64.7188C76.1191 64.3135 76.4405 63.813 76.6631 63.2174L80.1618 63.8502C79.8816 64.8843 79.3788 65.7901 78.6535 66.5677C77.9365 67.3371 77.034 67.9368 75.946 68.367C74.8663 68.7889 73.6341 68.9998 72.2494 68.9998Z" fill="white"/>
<path d="M98.4586 49.5554L91.5724 68.6152H87.6162L80.7175 49.5554H84.6861L89.4954 64.2225H89.6932L94.4901 49.5554H98.4586Z" fill="white"/>
<path d="M100.192 68.6152V49.5554H103.889V68.6152H100.192ZM102.059 46.6145C101.416 46.6145 100.864 46.3994 100.402 45.9692C99.9488 45.5308 99.7221 45.0096 99.7221 44.4057C99.7221 43.7936 99.9488 43.2724 100.402 42.8422C100.864 42.4038 101.416 42.1846 102.059 42.1846C102.702 42.1846 103.25 42.4038 103.703 42.8422C104.165 43.2724 104.395 43.7936 104.395 44.4057C104.395 45.0096 104.165 45.5308 103.703 45.9692C103.25 46.3994 102.702 46.6145 102.059 46.6145Z" fill="white"/>
<path d="M115.305 68.9998C113.434 68.9998 111.823 68.5986 110.471 67.7962C109.128 66.9855 108.089 65.848 107.356 64.3838C106.63 62.9113 106.268 61.1865 106.268 59.2094C106.268 57.257 106.63 55.5364 107.356 54.0473C108.089 52.5583 109.111 51.396 110.422 50.5605C111.741 49.7249 113.282 49.3072 115.046 49.3072C116.117 49.3072 117.156 49.485 118.161 49.8408C119.167 50.1965 120.069 50.7549 120.869 51.5159C121.668 52.277 122.299 53.2656 122.76 54.4816C123.222 55.6894 123.453 57.1578 123.453 58.8867V60.2021H108.357V57.4225H119.83C119.83 56.4463 119.632 55.5819 119.237 54.8291C118.841 54.068 118.285 53.4683 117.568 53.0298C116.859 52.5914 116.026 52.3721 115.07 52.3721C114.032 52.3721 113.125 52.6286 112.35 53.1415C111.584 53.6461 110.99 54.3079 110.57 55.1269C110.158 55.9376 109.952 56.8186 109.952 57.7699V59.9415C109.952 61.2154 110.175 62.2991 110.62 63.1926C111.073 64.086 111.703 64.7685 112.511 65.24C113.319 65.7033 114.263 65.9349 115.342 65.9349C116.043 65.9349 116.682 65.8356 117.259 65.6371C117.836 65.4303 118.334 65.1242 118.755 64.7188C119.175 64.3135 119.496 63.813 119.719 63.2174L123.218 63.8502C122.937 64.8843 122.435 65.7901 121.709 66.5677C120.992 67.3371 120.09 67.9368 119.002 68.367C117.922 68.7889 116.69 68.9998 115.305 68.9998Z" fill="white"/>
<path d="M129.896 68.6152L124.308 49.5554H128.128L131.85 63.5524H132.035L135.769 49.5554H139.589L143.298 63.4904H143.483L147.18 49.5554H151L145.424 68.6152H141.654L137.796 54.8539H137.512L133.655 68.6152H129.896Z" fill="white"/>
<path d="M9.34295 68.7422C8.75215 68.7422 8.23732 68.5474 7.79845 68.1577C7.35957 67.7681 7.14013 67.1327 7.14013 66.2518C7.14013 66.167 7.14013 66.0823 7.14013 65.9976C7.14013 65.9129 7.14857 65.8282 7.16545 65.7435C6.65906 66.76 6.08515 67.5139 5.44372 68.0053C4.81917 68.4796 4.18617 68.7168 3.54474 68.7168C2.95395 68.7168 2.39692 68.5135 1.87364 68.1069C1.35037 67.6834 0.928376 67.065 0.607661 66.2518C0.286945 65.4385 0.126587 64.4559 0.126587 63.3038C0.126587 62.1179 0.286945 61.059 0.607661 60.1272C0.945256 59.1954 1.38413 58.4076 1.92428 57.7638C2.46444 57.12 3.05523 56.6371 3.69666 56.3152C4.33809 55.9764 4.96264 55.807 5.57031 55.807C6.24551 55.807 6.85318 56.0188 7.39333 56.4423C7.93348 56.8489 8.30484 57.5012 8.5074 58.3991C8.55804 58.1111 8.59179 57.8485 8.60868 57.6113C8.64243 57.3741 8.65931 57.2132 8.65931 57.1285C8.67619 56.671 8.90407 56.3322 9.34295 56.1119C9.7987 55.8917 10.2967 55.7816 10.8368 55.7816C11.3094 55.7816 11.7568 55.8747 12.1787 56.0611C12.6007 56.2475 12.8877 56.5609 13.0396 57.0014L13.0903 57.1539C12.8877 57.6113 12.6851 58.1619 12.4826 58.8057C12.28 59.4495 12.0943 60.1272 11.9256 60.8388C11.7568 61.5334 11.6217 62.2196 11.5204 62.8972C11.4192 63.558 11.3685 64.1425 11.3685 64.6507C11.3685 65.2098 11.4276 65.5995 11.5458 65.8197C11.6639 66.023 11.8074 66.1247 11.9762 66.1247C12.2631 66.1247 12.5248 65.9214 12.7611 65.5148L12.9637 65.6164C12.9637 66.1925 12.778 66.7177 12.4066 67.192C12.0353 67.6664 11.5711 68.0476 11.014 68.3356C10.457 68.6067 9.89998 68.7422 9.34295 68.7422ZM5.21584 65.5148C5.65471 65.5148 6.13579 65.1251 6.65906 64.3458C7.19921 63.5495 7.66341 62.4144 8.05164 60.9404C8.0854 60.7879 8.11916 60.6439 8.15292 60.5084C8.18668 60.3559 8.212 60.2119 8.22888 60.0764C7.9588 59.4495 7.67185 59.009 7.36801 58.7549C7.08106 58.4838 6.7941 58.3483 6.50714 58.3483C6.08515 58.3483 5.68847 58.577 5.31712 59.0344C4.96264 59.4749 4.66725 60.034 4.43093 60.7117C4.21149 61.3894 4.10177 62.0671 4.10177 62.7448C4.10177 63.6766 4.20305 64.3712 4.40561 64.8286C4.62505 65.2861 4.89512 65.5148 5.21584 65.5148Z" fill="#C6E100"/>
<path d="M19.4063 68.6914C18.7818 68.6914 18.2163 68.4458 17.7099 67.9544C17.2035 67.4462 16.9503 66.7431 16.9503 65.8451C16.9503 65.4047 17.0094 64.9049 17.1276 64.3458C17.2457 63.7867 17.3723 63.2191 17.5074 62.6431C17.6593 62.0671 17.7943 61.5249 17.9125 61.0167C18.0306 60.5084 18.0897 60.0933 18.0897 59.7714C18.0897 59.4326 18.0222 59.17 17.8871 58.9836C17.7521 58.7803 17.5749 58.6787 17.3554 58.6787C17.0685 58.6787 16.7562 58.8481 16.4186 59.1869L16.2667 59.0853C16.2498 58.8142 16.3089 58.4923 16.4439 58.1196C16.579 57.7468 16.7815 57.3911 17.0516 57.0522C17.3386 56.6964 17.7015 56.4 18.1403 56.1628C18.5792 55.9256 19.1025 55.807 19.7102 55.807C20.6048 55.807 21.2631 56.0696 21.6851 56.5948C22.124 57.1031 22.3434 57.7299 22.3434 58.4754C22.3434 58.7464 22.3181 59.009 22.2674 59.2632C22.6219 58.738 23.0608 58.2128 23.5841 57.6876C24.1073 57.1454 24.6813 56.6964 25.3058 56.3407C25.9472 55.9849 26.6056 55.807 27.2807 55.807C28.0741 55.807 28.6142 56.0611 28.9012 56.5694C29.1882 57.0776 29.3316 57.713 29.3316 58.4754C29.3316 59.1869 29.2557 59.9493 29.1038 60.7625C28.9518 61.5758 28.7999 62.3636 28.648 63.1259C28.4961 63.8714 28.4201 64.4983 28.4201 65.0065C28.4201 65.6842 28.6142 66.023 29.0025 66.023C29.205 66.023 29.3823 65.9637 29.5342 65.8451C29.6861 65.7096 29.7874 65.5826 29.838 65.464L30.0153 65.5402C30.0153 66.167 29.838 66.7177 29.4836 67.192C29.146 67.6664 28.7155 68.0391 28.1922 68.3102C27.669 68.5643 27.1373 68.6914 26.5971 68.6914C25.9388 68.6914 25.3564 68.4627 24.8501 68.0053C24.3437 67.5478 24.0905 66.8024 24.0905 65.7689C24.0905 65.159 24.1664 64.4983 24.3183 63.7867C24.4871 63.0751 24.6475 62.389 24.7994 61.7282C24.9513 61.0675 25.0273 60.5253 25.0273 60.1018C25.0273 59.8477 24.9767 59.6528 24.8754 59.5173C24.791 59.3648 24.6306 59.2886 24.3943 59.2886C24.0061 59.2886 23.5756 59.4665 23.103 59.8222C22.6472 60.178 22.2506 60.6524 21.913 61.2454C21.5923 61.8384 21.4319 62.4906 21.4319 63.2022C21.4319 63.6596 21.4825 64.1001 21.5838 64.5237C21.702 64.9472 21.7611 65.4047 21.7611 65.896C21.7611 66.8108 21.5247 67.5055 21.0521 67.9799C20.5795 68.4542 20.0309 68.6914 19.4063 68.6914Z" fill="#C6E100"/>
<path d="M37.0001 68.7168C36.3925 68.7168 35.8185 68.5051 35.2784 68.0815C34.7551 67.658 34.3247 67.0396 33.9871 66.2263C33.6664 65.4131 33.506 64.4305 33.506 63.2784C33.506 62.0925 33.6748 61.0336 34.0124 60.1018C34.35 59.17 34.7889 58.3822 35.329 57.7384C35.8861 57.0776 36.4853 56.5778 37.1267 56.239C37.785 55.9002 38.4265 55.7307 39.051 55.7307C39.7431 55.7307 40.3592 55.951 40.8994 56.3915C41.4395 56.815 41.8109 57.4842 42.0134 58.3991C42.1653 57.552 42.2919 56.7473 42.3932 55.9849C42.5114 55.2055 42.5705 54.5194 42.5705 53.9264C42.5705 53.1471 42.4692 52.5795 42.2666 52.2237V52.0713C42.6549 51.6308 43.0769 51.3089 43.5326 51.1056C44.0052 50.8853 44.4526 50.7752 44.8745 50.7752C45.4316 50.7752 45.9042 50.9531 46.2924 51.3089C46.6807 51.6477 46.8748 52.139 46.8748 52.7828C46.8748 53.1386 46.8157 53.6638 46.6976 54.3584C46.5794 55.0531 46.4359 55.8493 46.2671 56.7473C46.0983 57.6283 45.9211 58.5431 45.7354 59.4919C45.5666 60.4237 45.4231 61.3216 45.305 62.1857C45.1868 63.0328 45.1277 63.7697 45.1277 64.3966C45.1277 64.9218 45.1784 65.3454 45.2797 65.6673C45.3978 65.9722 45.5835 66.1247 45.8367 66.1247C46.0224 66.1247 46.208 66.0654 46.3937 65.9468C46.5963 65.8113 46.7313 65.6588 46.7988 65.4894L46.9761 65.6164C46.9761 66.1755 46.7988 66.6923 46.4444 67.1666C46.0899 67.6241 45.6426 67.9968 45.1024 68.2848C44.5623 68.5728 44.0052 68.7168 43.4313 68.7168C42.8068 68.7168 42.3088 68.5474 41.9375 68.2086C41.583 67.8528 41.3298 67.4038 41.1779 66.8617C41.026 66.3195 40.9416 65.7604 40.9247 65.1844C40.4014 66.4042 39.7853 67.3022 39.0763 67.8782C38.3843 68.4373 37.6922 68.7168 37.0001 68.7168ZM38.6965 65.4894C39.1354 65.4894 39.6249 65.0912 40.1651 64.295C40.7052 63.4987 41.1779 62.3381 41.583 60.8134L41.7349 60.0256C41.4648 59.3987 41.1694 58.9582 40.8487 58.7041C40.5449 58.433 40.2495 58.2975 39.9625 58.2975C39.5405 58.2975 39.1439 58.5347 38.7725 59.009C38.4011 59.4665 38.0973 60.0594 37.861 60.7879C37.6416 61.4995 37.5318 62.2534 37.5318 63.0497C37.5318 63.8121 37.6416 64.4135 37.861 64.854C38.0804 65.2776 38.359 65.4894 38.6965 65.4894Z" fill="#C6E100"/>
<g clip-path="url(#clip0_3107_175)">
<path d="M12.553 39.9271L1.56915 45.6057V22.8914L12.553 17.2129M12.553 39.9271L25.106 45.6057M12.553 39.9271V17.2129M25.106 45.6057L36.0899 39.9271V17.2129L25.106 22.8914M25.106 45.6057V22.8914M25.106 22.8914L12.553 17.2129" stroke="white" stroke-width="4" stroke-linecap="round" stroke-linejoin="round"/>
</g>
<path d="M33.1818 5.4248C34.0895 2.68129 37.9702 2.68138 38.8781 5.4248L40.09 9.08691C40.2255 9.49607 40.6081 9.77236 41.0392 9.77246H44.882C47.8012 9.77259 49.0005 13.5193 46.6241 15.2148L43.5782 17.3877C43.2215 17.6423 43.0725 18.0995 43.2101 18.5156L44.3878 22.0762C45.2991 24.8306 42.1587 27.146 39.797 25.4609L36.6115 23.1875C36.2639 22.9395 35.7969 22.9395 35.4493 23.1875L32.2638 25.4609C29.9021 27.146 26.7617 24.8306 27.673 22.0762L28.8507 18.5156C28.9883 18.0995 28.8392 17.6423 28.4825 17.3877L25.4366 15.2148C23.0602 13.5193 24.2596 9.77252 27.1788 9.77246H31.0216C31.4526 9.77233 31.8353 9.49606 31.9708 9.08691L33.1818 5.4248Z" fill="#C6E100" stroke="#1D3B36" stroke-width="2"/>
<defs>
<clipPath id="clip0_3107_175">
<rect width="37.659" height="34.0713" fill="white" transform="translate(0 14.374)"/>
</clipPath>
</defs>
</svg>
