<svg width="225" height="30" viewBox="0 0 225 30" fill="none" xmlns="http://www.w3.org/2000/svg">
<path d="M47.5489 2.92705C47.8483 2.00574 49.1517 2.00574 49.4511 2.92705L51.6432 9.67376C51.7771 10.0858 52.161 10.3647 52.5943 10.3647H59.6882C60.6569 10.3647 61.0597 11.6044 60.2759 12.1738L54.5369 16.3435C54.1864 16.5981 54.0397 17.0495 54.1736 17.4615L56.3657 24.2082C56.6651 25.1295 55.6106 25.8956 54.8269 25.3262L49.0878 21.1565C48.7373 20.9019 48.2627 20.9019 47.9122 21.1565L42.1731 25.3262C41.3894 25.8956 40.3349 25.1295 40.6343 24.2082L42.8264 17.4615C42.9603 17.0495 42.8136 16.5981 42.4631 16.3435L36.7241 12.1738C35.9403 11.6044 36.3431 10.3647 37.3118 10.3647H44.4057C44.839 10.3647 45.2229 10.0858 45.3568 9.67376L47.5489 2.92705Z" fill="#FFC84A"/>
<path d="M79.5489 2.92705C79.8483 2.00574 81.1517 2.00574 81.4511 2.92705L83.6432 9.67376C83.7771 10.0858 84.161 10.3647 84.5943 10.3647H91.6882C92.6569 10.3647 93.0597 11.6044 92.2759 12.1738L86.5369 16.3435C86.1864 16.5981 86.0397 17.0495 86.1736 17.4615L88.3657 24.2082C88.6651 25.1295 87.6106 25.8956 86.8269 25.3262L81.0878 21.1565C80.7373 20.9019 80.2627 20.9019 79.9122 21.1565L74.1731 25.3262C73.3894 25.8956 72.3349 25.1295 72.6343 24.2082L74.8264 17.4615C74.9603 17.0495 74.8136 16.5981 74.4631 16.3435L68.7241 12.1738C67.9403 11.6044 68.3431 10.3647 69.3118 10.3647H76.4057C76.839 10.3647 77.2229 10.0858 77.3568 9.67376L79.5489 2.92705Z" fill="#FFC84A"/>
<path d="M111.549 2.92705C111.848 2.00574 113.152 2.00574 113.451 2.92705L115.643 9.67376C115.777 10.0858 116.161 10.3647 116.594 10.3647H123.688C124.657 10.3647 125.06 11.6044 124.276 12.1738L118.537 16.3435C118.186 16.5981 118.04 17.0495 118.174 17.4615L120.366 24.2082C120.665 25.1295 119.611 25.8956 118.827 25.3262L113.088 21.1565C112.737 20.9019 112.263 20.9019 111.912 21.1565L106.173 25.3262C105.389 25.8956 104.335 25.1295 104.634 24.2082L106.826 17.4615C106.96 17.0495 106.814 16.5981 106.463 16.3435L100.724 12.1738C99.9403 11.6044 100.343 10.3647 101.312 10.3647H108.406C108.839 10.3647 109.223 10.0858 109.357 9.67376L111.549 2.92705Z" fill="#FFC84A"/>
<path d="M143.549 2.92705C143.848 2.00574 145.152 2.00574 145.451 2.92705L147.643 9.67376C147.777 10.0858 148.161 10.3647 148.594 10.3647H155.688C156.657 10.3647 157.06 11.6044 156.276 12.1738L150.537 16.3435C150.186 16.5981 150.04 17.0495 150.174 17.4615L152.366 24.2082C152.665 25.1295 151.611 25.8956 150.827 25.3262L145.088 21.1565C144.737 20.9019 144.263 20.9019 143.912 21.1565L138.173 25.3262C137.389 25.8956 136.335 25.1295 136.634 24.2082L138.826 17.4615C138.96 17.0495 138.814 16.5981 138.463 16.3435L132.724 12.1738C131.94 11.6044 132.343 10.3647 133.312 10.3647H140.406C140.839 10.3647 141.223 10.0858 141.357 9.67376L143.549 2.92705Z" fill="#FFC84A"/>
<path d="M175.549 2.92705C175.848 2.00574 177.152 2.00574 177.451 2.92705L179.643 9.67376C179.777 10.0858 180.161 10.3647 180.594 10.3647H187.688C188.657 10.3647 189.06 11.6044 188.276 12.1738L182.537 16.3435C182.186 16.5981 182.04 17.0495 182.174 17.4615L184.366 24.2082C184.665 25.1295 183.611 25.8956 182.827 25.3262L177.088 21.1565C176.737 20.9019 176.263 20.9019 175.912 21.1565L170.173 25.3262C169.389 25.8956 168.335 25.1295 168.634 24.2082L170.826 17.4615C170.96 17.0495 170.814 16.5981 170.463 16.3435L164.724 12.1738C163.94 11.6044 164.343 10.3647 165.312 10.3647H172.406C172.839 10.3647 173.223 10.0858 173.357 9.67376L175.549 2.92705Z" fill="#FFC84A"/>
</svg>
