<svg width="402" height="30" viewBox="0 0 402 30" fill="none" xmlns="http://www.w3.org/2000/svg">
<path d="M136.049 2.92705C136.348 2.00574 137.652 2.00574 137.951 2.92705L140.143 9.67376C140.277 10.0858 140.661 10.3647 141.094 10.3647H148.188C149.157 10.3647 149.56 11.6044 148.776 12.1738L143.037 16.3435C142.686 16.5981 142.54 17.0495 142.674 17.4615L144.866 24.2082C145.165 25.1295 144.111 25.8956 143.327 25.3262L137.588 21.1565C137.237 20.9019 136.763 20.9019 136.412 21.1565L130.673 25.3262C129.889 25.8956 128.835 25.1295 129.134 24.2082L131.326 17.4615C131.46 17.0495 131.314 16.5981 130.963 16.3435L125.224 12.1738C124.44 11.6044 124.843 10.3647 125.812 10.3647H132.906C133.339 10.3647 133.723 10.0858 133.857 9.67376L136.049 2.92705Z" fill="#FFC84A"/>
<path d="M168.049 2.92705C168.348 2.00574 169.652 2.00574 169.951 2.92705L172.143 9.67376C172.277 10.0858 172.661 10.3647 173.094 10.3647H180.188C181.157 10.3647 181.56 11.6044 180.776 12.1738L175.037 16.3435C174.686 16.5981 174.54 17.0495 174.674 17.4615L176.866 24.2082C177.165 25.1295 176.111 25.8956 175.327 25.3262L169.588 21.1565C169.237 20.9019 168.763 20.9019 168.412 21.1565L162.673 25.3262C161.889 25.8956 160.835 25.1295 161.134 24.2082L163.326 17.4615C163.46 17.0495 163.314 16.5981 162.963 16.3435L157.224 12.1738C156.44 11.6044 156.843 10.3647 157.812 10.3647H164.906C165.339 10.3647 165.723 10.0858 165.857 9.67376L168.049 2.92705Z" fill="#FFC84A"/>
<path d="M200.049 2.92705C200.348 2.00574 201.652 2.00574 201.951 2.92705L204.143 9.67376C204.277 10.0858 204.661 10.3647 205.094 10.3647H212.188C213.157 10.3647 213.56 11.6044 212.776 12.1738L207.037 16.3435C206.686 16.5981 206.54 17.0495 206.674 17.4615L208.866 24.2082C209.165 25.1295 208.111 25.8956 207.327 25.3262L201.588 21.1565C201.237 20.9019 200.763 20.9019 200.412 21.1565L194.673 25.3262C193.889 25.8956 192.835 25.1295 193.134 24.2082L195.326 17.4615C195.46 17.0495 195.314 16.5981 194.963 16.3435L189.224 12.1738C188.44 11.6044 188.843 10.3647 189.812 10.3647H196.906C197.339 10.3647 197.723 10.0858 197.857 9.67376L200.049 2.92705Z" fill="#FFC84A"/>
<path d="M232.049 2.92705C232.348 2.00574 233.652 2.00574 233.951 2.92705L236.143 9.67376C236.277 10.0858 236.661 10.3647 237.094 10.3647H244.188C245.157 10.3647 245.56 11.6044 244.776 12.1738L239.037 16.3435C238.686 16.5981 238.54 17.0495 238.674 17.4615L240.866 24.2082C241.165 25.1295 240.111 25.8956 239.327 25.3262L233.588 21.1565C233.237 20.9019 232.763 20.9019 232.412 21.1565L226.673 25.3262C225.889 25.8956 224.835 25.1295 225.134 24.2082L227.326 17.4615C227.46 17.0495 227.314 16.5981 226.963 16.3435L221.224 12.1738C220.44 11.6044 220.843 10.3647 221.812 10.3647H228.906C229.339 10.3647 229.723 10.0858 229.857 9.67376L232.049 2.92705Z" fill="#FFC84A"/>
<path d="M264.049 2.92705C264.348 2.00574 265.652 2.00574 265.951 2.92705L268.143 9.67376C268.277 10.0858 268.661 10.3647 269.094 10.3647H276.188C277.157 10.3647 277.56 11.6044 276.776 12.1738L271.037 16.3435C270.686 16.5981 270.54 17.0495 270.674 17.4615L272.866 24.2082C273.165 25.1295 272.111 25.8956 271.327 25.3262L265.588 21.1565C265.237 20.9019 264.763 20.9019 264.412 21.1565L258.673 25.3262C257.889 25.8956 256.835 25.1295 257.134 24.2082L259.326 17.4615C259.46 17.0495 259.314 16.5981 258.963 16.3435L253.224 12.1738C252.44 11.6044 252.843 10.3647 253.812 10.3647H260.906C261.339 10.3647 261.723 10.0858 261.857 9.67376L264.049 2.92705Z" fill="#FFC84A"/>
</svg>
